# Blender 4.2.2 LTS
# www.blender.org
mtllib map.mtl
o Plane
v -30.000000 0.000000 30.000000
v 30.000000 0.000000 30.000000
v -30.000000 0.000000 -30.000000
v 30.000000 0.000000 -30.000000
vn -0.0000 1.0000 -0.0000
vt -3.359739 -6.998959
vt 3.839849 -6.998960
vt 3.839850 7.998960
vt -3.359739 7.998961
s 0
usemtl Material.001
f 1/1/1 2/2/1 4/3/1 3/4/1
o Cube
v -5.000000 0.000000 -4.950000
v -5.000000 3.000000 -4.950000
v -5.000000 0.000000 -5.050000
v -5.000000 3.000000 -5.050000
v 5.000000 0.000000 -4.950000
v 5.000000 3.000000 -4.950000
v 5.000000 0.000000 -5.050000
v 5.000000 3.000000 -5.050000
vn -1.0000 -0.0000 -0.0000
vn -0.0000 -0.0000 -1.0000
vn 1.0000 -0.0000 -0.0000
vn -0.0000 -0.0000 1.0000
vn -0.0000 -1.0000 -0.0000
vn -0.0000 1.0000 -0.0000
vt 0.375000 0.000000
vt 0.625000 0.000000
vt 0.625000 0.250000
vt 0.375000 0.250000
vt 0.625000 0.500000
vt 0.375000 0.500000
vt 0.625000 0.750000
vt 0.375000 0.750000
vt 0.625000 1.000000
vt 0.375000 1.000000
vt 0.125000 0.500000
vt 0.125000 0.750000
vt 0.875000 0.500000
vt 0.875000 0.750000
s 0
usemtl Material.002
f 5/5/2 6/6/2 8/7/2 7/8/2
f 7/8/3 8/7/3 12/9/3 11/10/3
f 11/10/4 12/9/4 10/11/4 9/12/4
f 9/12/5 10/11/5 6/13/5 5/14/5
f 7/15/6 11/10/6 9/12/6 5/16/6
f 12/9/7 8/17/7 6/18/7 10/11/7
o Cube.001
v 5.050000 0.000000 5.000000
v 5.050000 3.000000 5.000000
v 4.950000 0.000000 5.000000
v 4.950000 3.000000 5.000000
v 5.050000 0.000000 -5.000000
v 5.050000 3.000000 -5.000000
v 4.950000 0.000000 -5.000000
v 4.950000 3.000000 -5.000000
vn -0.0000 -0.0000 1.0000
vn -1.0000 -0.0000 -0.0000
vn -0.0000 -0.0000 -1.0000
vn 1.0000 -0.0000 -0.0000
vn -0.0000 -1.0000 -0.0000
vn -0.0000 1.0000 -0.0000
vt 0.375000 0.000000
vt 0.625000 0.000000
vt 0.625000 0.250000
vt 0.375000 0.250000
vt 0.625000 0.500000
vt 0.375000 0.500000
vt 0.625000 0.750000
vt 0.375000 0.750000
vt 0.625000 1.000000
vt 0.375000 1.000000
vt 0.125000 0.500000
vt 0.125000 0.750000
vt 0.875000 0.500000
vt 0.875000 0.750000
s 0
usemtl Material.002
f 13/19/8 14/20/8 16/21/8 15/22/8
f 15/22/9 16/21/9 20/23/9 19/24/9
f 19/24/10 20/23/10 18/25/10 17/26/10
f 17/26/11 18/25/11 14/27/11 13/28/11
f 15/29/12 19/24/12 17/26/12 13/30/12
f 20/23/13 16/31/13 14/32/13 18/25/13
o Cube.002
v -4.950000 0.000000 5.000000
v -4.950000 3.000000 5.000000
v -5.050000 0.000000 5.000000
v -5.050000 3.000000 5.000000
v -4.950000 0.000000 -5.000000
v -4.950000 3.000000 -5.000000
v -5.050000 0.000000 -5.000000
v -5.050000 3.000000 -5.000000
vn -0.0000 -0.0000 1.0000
vn -1.0000 -0.0000 -0.0000
vn -0.0000 -0.0000 -1.0000
vn 1.0000 -0.0000 -0.0000
vn -0.0000 -1.0000 -0.0000
vn -0.0000 1.0000 -0.0000
vt -0.013465 -7.964776
vt 0.998805 -7.964776
vt 0.998805 -5.310530
vt -0.013464 -5.310530
vt 0.998805 -2.656282
vt -0.013464 -2.656282
vt 0.998805 -0.002037
vt -0.013465 -0.002037
vt 0.998805 2.652211
vt -0.013464 2.652212
vt -1.025733 -2.656283
vt -1.025733 -0.002037
vt 2.011075 -2.656282
vt 2.011075 -0.002036
s 0
usemtl Material.002
f 21/33/14 22/34/14 24/35/14 23/36/14
f 23/36/15 24/35/15 28/37/15 27/38/15
f 27/38/16 28/37/16 26/39/16 25/40/16
f 25/40/17 26/39/17 22/41/17 21/42/17
f 23/43/18 27/38/18 25/40/18 21/44/18
f 28/37/19 24/45/19 22/46/19 26/39/19
o Cube.003
v -5.000000 0.000000 5.050000
v -5.000000 3.000000 5.050000
v -5.000000 0.000000 4.950000
v -5.000000 3.000000 4.950000
v 5.000000 0.000000 5.050000
v 5.000000 3.000000 5.050000
v 5.000000 0.000000 4.950000
v 5.000000 3.000000 4.950000
v 0.000000 3.000000 4.950000
v 0.000000 3.000000 5.050000
v 2.500000 3.000000 4.950000
v 2.500000 0.000000 5.050000
v 2.500000 0.000000 4.950000
v 2.500000 3.000000 5.050000
v -2.500000 0.000000 4.950000
v -2.500000 3.000000 5.050000
v -2.500000 3.000000 4.950000
v -2.500000 0.000000 5.050000
v -1.250000 3.000000 4.950000
v -1.250000 0.000000 5.050000
v -1.250000 0.000000 4.950000
v -1.250000 3.000000 5.050000
v 1.250000 0.000000 4.950000
v 1.250000 3.000000 5.050000
v 1.250000 3.000000 4.950000
v 1.250000 0.000000 5.050000
v -5.000000 1.500000 5.050000
v -5.000000 1.500000 4.950000
v 5.000000 1.500000 4.950000
v 5.000000 1.500000 5.050000
v 2.500000 1.500000 5.050000
v 2.500000 1.500000 4.950000
v -2.500000 1.500000 4.950000
v -2.500000 1.500000 5.050000
v -1.250000 1.500000 5.050000
v -1.250000 1.500000 4.950000
v 1.250000 1.500000 4.950000
v 1.250000 1.500000 5.050000
v -5.000000 2.250000 5.050000
v -5.000000 2.250000 4.950000
v 5.000000 2.250000 4.950000
v 5.000000 2.250000 5.050000
v 0.000000 2.250000 5.050000
v 0.000000 2.250000 4.950000
v 2.500000 2.250000 5.050000
v 2.500000 2.250000 4.950000
v -2.500000 2.250000 4.950000
v -2.500000 2.250000 5.050000
v -1.250000 2.250000 5.050000
v -1.250000 2.250000 4.950000
v 1.250000 2.250000 4.950000
v 1.250000 2.250000 5.050000
vn -1.0000 -0.0000 -0.0000
vn -0.0000 -0.0000 -1.0000
vn 1.0000 -0.0000 -0.0000
vn -0.0000 -0.0000 1.0000
vn -0.0000 -1.0000 -0.0000
vn -0.0000 1.0000 -0.0000
vt 0.625000 -11.534550
vt 0.750000 -11.534550
vt 0.750000 -5.517275
vt 0.625000 -5.517275
vt 0.625000 -1.004319
vt 0.750000 -1.004319
vt 0.750000 0.500000
vt 0.625000 0.500000
vt 0.750000 6.517275
vt 0.625000 6.517275
vt 0.625000 11.030231
vt 0.750000 11.030231
vt 0.750000 12.534550
vt 0.625000 12.534550
vt 0.125000 0.500000
vt 0.250000 0.500000
vt 0.250000 6.517275
vt 0.125000 6.517275
vt 1.125000 0.500000
vt 1.250000 0.500000
vt 1.250000 6.517275
vt 1.125000 6.517275
vt 0.937500 0.500000
vt 1.000000 0.500000
vt 1.000000 6.517275
vt 0.937500 6.517275
vt -0.062500 6.517275
vt -0.062500 0.500000
vt 0.500000 -3.260797
vt 0.625000 -3.260797
vt 0.625000 10.278071
vt 0.500000 10.278071
vt 0.625000 8.773752
vt 0.750000 8.773752
vt 0.750000 9.525912
vt 0.625000 9.525912
vt 0.750000 -3.260797
vt 0.750000 -2.508637
vt 0.625000 -2.508637
vt 0.750000 8.021593
vt 0.625000 8.021593
vt 0.875000 0.500000
vt 0.875000 6.517275
vt 0.062500 0.500000
vt 0.062500 6.517275
vt 0.625000 -1.756478
vt 0.750000 -1.756478
vt 0.750000 -4.012956
vt 0.625000 -4.012956
vt -0.250000 0.500000
vt -0.125000 0.500000
vt -0.125000 6.517275
vt -0.250000 6.517275
vt 1.062500 0.500000
vt 1.062500 6.517275
vt 0.750000 10.278071
vt 0.250000 8.021593
vt 0.500000 8.021593
vt 0.500000 8.773752
vt 0.250000 8.773752
vt 0.250000 -4.012956
vt 0.500000 -4.012956
vt 0.250000 -3.260797
vt 0.250000 10.278071
vt 0.500000 11.030231
vt 0.250000 11.030231
vt 0.250000 -5.517275
vt 0.500000 -5.517275
vt 0.250000 -1.756478
vt 0.500000 -1.756478
vt 0.500000 -1.004319
vt 0.250000 -1.004319
vt 0.500000 6.517275
vt 0.500000 12.534550
vt 0.250000 12.534550
vt 0.500000 0.500000
vt 0.250000 -11.534550
vt 0.500000 -11.534550
s 0
usemtl Material.002
f 67/47/20 30/48/20 32/49/20 68/50/20
f 74/51/21 39/52/21 36/53/21 69/54/21
f 69/54/22 36/53/22 34/55/22 70/56/22
f 76/57/23 44/58/23 30/59/23 67/60/23
f 41/61/24 35/62/24 33/63/24 40/64/24
f 45/65/25 32/66/25 30/67/25 44/68/25
f 53/69/25 37/70/25 38/71/25 52/72/25
f 48/73/22 49/74/22 64/75/22 78/76/22 77/77/22 63/78/22
f 80/79/23 52/80/23 38/81/23 71/82/23
f 78/76/21 47/83/21 37/84/21 72/85/21
f 70/56/23 34/55/23 42/86/23 73/87/23
f 36/53/25 39/88/25 42/89/25 34/55/25
f 51/90/24 41/61/24 40/64/24 54/91/24
f 79/92/21 53/93/21 39/52/21 74/51/21
f 68/50/21 32/49/21 45/94/21 75/95/21
f 31/96/24 43/97/24 46/98/24 29/99/24
f 47/100/25 45/65/25 44/68/25 50/101/25
f 77/77/23 50/102/23 44/58/23 76/57/23
f 71/82/23 38/81/23 50/102/23 77/77/23
f 37/70/25 47/100/25 50/101/25 38/71/25
f 75/95/21 45/94/21 47/83/21 78/76/21
f 43/97/24 49/74/24 48/73/24 46/98/24
f 72/85/21 37/84/21 53/93/21 79/92/21
f 79/92/24 80/79/24 71/82/24 77/77/24 78/76/24 72/85/24
f 73/87/23 42/86/23 52/80/23 80/79/23
f 39/88/25 53/69/25 52/72/25 42/89/25
f 40/103/23 59/104/23 66/105/23 54/106/23
f 43/107/21 61/108/21 64/75/21 49/109/21
f 48/110/23 63/78/23 62/111/23 46/112/23
f 31/113/21 56/114/21 61/108/21 43/107/21
f 51/115/21 65/116/21 60/117/21 41/118/21
f 33/63/23 58/119/23 59/104/23 40/103/23
f 46/112/23 62/111/23 55/120/23 29/121/23
f 35/62/22 57/122/22 58/119/22 33/63/22
f 41/118/21 60/117/21 57/122/21 35/62/21
f 29/123/20 55/124/20 56/114/20 31/113/20
f 59/104/23 73/87/23 80/79/23 66/105/23
f 80/79/20 79/92/20 65/116/20 51/90/20 54/106/20 66/105/20
f 61/108/21 75/95/21 78/76/21 64/75/21
f 63/78/23 77/77/23 76/57/23 62/111/23
f 56/114/21 68/50/21 75/95/21 61/108/21
f 65/116/21 79/92/21 74/51/21 60/117/21
f 58/119/23 70/56/23 73/87/23 59/104/23
f 62/111/23 76/57/23 67/60/23 55/120/23
f 57/122/22 69/54/22 70/56/22 58/119/22
f 60/117/21 74/51/21 69/54/21 57/122/21
f 55/124/20 67/47/20 68/50/20 56/114/20
o Cube.004
v 1.350000 0.000000 12.550001
v 1.350000 3.000000 12.550001
v 1.250000 0.000000 12.550001
v 1.250000 3.000000 12.550001
v 1.350000 0.000000 5.050001
v 1.350000 3.000000 5.050001
v 1.250000 0.000000 5.050001
v 1.250000 3.000000 5.050001
vn -0.0000 -0.0000 1.0000
vn -1.0000 -0.0000 -0.0000
vn -0.0000 -0.0000 -1.0000
vn 1.0000 -0.0000 -0.0000
vn -0.0000 -1.0000 -0.0000
vn -0.0000 1.0000 -0.0000
vt 0.375000 0.000000
vt 0.625000 0.000000
vt 0.625000 0.250000
vt 0.375000 0.250000
vt 0.625000 0.500000
vt 0.375000 0.500000
vt 0.625000 0.750000
vt 0.375000 0.750000
vt 0.625000 1.000000
vt 0.375000 1.000000
vt 0.125000 0.500000
vt 0.125000 0.750000
vt 0.875000 0.500000
vt 0.875000 0.750000
s 0
usemtl Material.002
f 81/125/26 82/126/26 84/127/26 83/128/26
f 83/128/27 84/127/27 88/129/27 87/130/27
f 87/130/28 88/129/28 86/131/28 85/132/28
f 85/132/29 86/131/29 82/133/29 81/134/29
f 83/135/30 87/130/30 85/132/30 81/136/30
f 88/129/31 84/137/31 82/138/31 86/131/31
o Cube.005
v -1.250000 0.000000 10.050001
v -1.250000 3.000000 10.050001
v -1.350000 0.000000 10.050001
v -1.350000 3.000000 10.050001
v -1.250000 0.000000 5.050001
v -1.250000 3.000000 5.050001
v -1.350000 0.000000 5.050001
v -1.350000 3.000000 5.050001
vn -0.0000 -0.0000 1.0000
vn -1.0000 -0.0000 -0.0000
vn -0.0000 -0.0000 -1.0000
vn 1.0000 -0.0000 -0.0000
vn -0.0000 -1.0000 -0.0000
vn -0.0000 1.0000 -0.0000
vt 0.375000 0.000000
vt 0.625000 0.000000
vt 0.625000 0.250000
vt 0.375000 0.250000
vt 0.625000 0.500000
vt 0.375000 0.500000
vt 0.625000 0.750000
vt 0.375000 0.750000
vt 0.625000 1.000000
vt 0.375000 1.000000
vt 0.125000 0.500000
vt 0.125000 0.750000
vt 0.875000 0.500000
vt 0.875000 0.750000
s 0
usemtl Material.002
f 89/139/32 90/140/32 92/141/32 91/142/32
f 91/142/33 92/141/33 96/143/33 95/144/33
f 95/144/34 96/143/34 94/145/34 93/146/34
f 93/146/35 94/145/35 90/147/35 89/148/35
f 91/149/36 95/144/36 93/146/36 89/150/36
f 96/143/37 92/151/37 90/152/37 94/145/37
o Cube.006
v -6.350000 0.000000 10.050000
v -6.350000 3.000000 10.050000
v -6.350000 0.000000 9.950000
v -6.350000 3.000000 9.950000
v -1.350000 0.000000 10.050000
v -1.350000 3.000000 10.050000
v -1.350000 0.000000 9.950000
v -1.350000 3.000000 9.950000
vn -1.0000 -0.0000 -0.0000
vn -0.0000 -0.0000 -1.0000
vn 1.0000 -0.0000 -0.0000
vn -0.0000 -0.0000 1.0000
vn -0.0000 -1.0000 -0.0000
vn -0.0000 1.0000 -0.0000
vt 0.375000 0.000000
vt 0.625000 0.000000
vt 0.625000 0.250000
vt 0.375000 0.250000
vt 0.625000 0.500000
vt 0.375000 0.500000
vt 0.625000 0.750000
vt 0.375000 0.750000
vt 0.625000 1.000000
vt 0.375000 1.000000
vt 0.125000 0.500000
vt 0.125000 0.750000
vt 0.875000 0.500000
vt 0.875000 0.750000
s 0
usemtl Material.002
f 97/153/38 98/154/38 100/155/38 99/156/38
f 99/156/39 100/155/39 104/157/39 103/158/39
f 103/158/40 104/157/40 102/159/40 101/160/40
f 101/160/41 102/159/41 98/161/41 97/162/41
f 99/163/42 103/158/42 101/160/42 97/164/42
f 104/157/43 100/165/43 98/166/43 102/159/43
o Cube.007
v -6.250000 0.000000 12.550001
v -6.250000 3.000000 12.550001
v -6.250000 0.000000 12.450001
v -6.250000 3.000000 12.450001
v 1.250000 0.000000 12.550001
v 1.250000 3.000000 12.550001
v 1.250000 0.000000 12.450001
v 1.250000 3.000000 12.450001
vn -1.0000 -0.0000 -0.0000
vn -0.0000 -0.0000 -1.0000
vn 1.0000 -0.0000 -0.0000
vn -0.0000 -0.0000 1.0000
vn -0.0000 -1.0000 -0.0000
vn -0.0000 1.0000 -0.0000
vt 0.375000 0.000000
vt 0.625000 0.000000
vt 0.625000 0.250000
vt 0.375000 0.250000
vt 0.625000 0.500000
vt 0.375000 0.500000
vt 0.625000 0.750000
vt 0.375000 0.750000
vt 0.625000 1.000000
vt 0.375000 1.000000
vt 0.125000 0.500000
vt 0.125000 0.750000
vt 0.875000 0.500000
vt 0.875000 0.750000
s 0
usemtl Material.002
f 105/167/44 106/168/44 108/169/44 107/170/44
f 107/170/45 108/169/45 112/171/45 111/172/45
f 111/172/46 112/171/46 110/173/46 109/174/46
f 109/174/47 110/173/47 106/175/47 105/176/47
f 107/177/48 111/172/48 109/174/48 105/178/48
f 112/171/49 108/179/49 106/180/49 110/173/49
o Cube.008
v -6.111825 0.000000 17.221701
v -6.111825 3.000000 17.221701
v -6.211825 0.000000 17.221701
v -6.211825 3.000000 17.221701
v -6.111826 0.000000 7.221701
v -6.111826 3.000000 7.221701
v -6.211826 0.000000 7.221701
v -6.211826 3.000000 7.221701
vn -0.0000 -0.0000 1.0000
vn -1.0000 -0.0000 -0.0000
vn -0.0000 -0.0000 -1.0000
vn 1.0000 -0.0000 -0.0000
vn -0.0000 -1.0000 -0.0000
vn -0.0000 1.0000 -0.0000
vt 0.375000 0.000000
vt 0.625000 0.000000
vt 0.625000 0.250000
vt 0.375000 0.250000
vt 0.625000 0.500000
vt 0.375000 0.500000
vt 0.625000 0.750000
vt 0.375000 0.750000
vt 0.625000 1.000000
vt 0.375000 1.000000
vt 0.125000 0.500000
vt 0.125000 0.750000
vt 0.875000 0.500000
vt 0.875000 0.750000
s 0
usemtl Material.002
f 113/181/50 114/182/50 116/183/50 115/184/50
f 115/184/51 116/183/51 120/185/51 119/186/51
f 119/186/52 120/185/52 118/187/52 117/188/52
f 117/188/53 118/187/53 114/189/53 113/190/53
f 115/191/54 119/186/54 117/188/54 113/192/54
f 120/185/55 116/193/55 114/194/55 118/187/55
